Coordinates
version=1
nRows=7
nColumns=42
inDegrees=yes

Units are S.I. units (second, meters, Newtons, ...)
If the header above contains a line with 'inDegrees', this indicates whether rotational values are in degrees (yes) or radians (no).

endheader
time	pelvis_tilt	pelvis_list	pelvis_rotation	pelvis_tx	pelvis_ty	pelvis_tz	hip_flexion_r	hip_adduction_r	hip_rotation_r	knee_angle_r	knee_adduction_r	knee_angle_r_beta	ankle_angle_r	subtalar_angle_r	mtp_angle_r	hip_flexion_l	hip_adduction_l	hip_rotation_l	knee_angle_l	knee_adduction_l	knee_angle_l_beta	ankle_angle_l	subtalar_angle_l	mtp_angle_l	lumbar_extension	lumbar_bending	lumbar_rotation	arm_flex_r	arm_add_r	arm_rot_r	elbow_flex_r	pro_sup_r	wrist_flex_r	wrist_dev_r	arm_flex_l	arm_add_l	arm_rot_l	elbow_flex_l	pro_sup_l	wrist_flex_l	wrist_dev_l
      0.50000000	     -0.68512688	      2.45825107	     11.80854333	     -0.06468780	      0.88679414	      0.38266383	     23.67646041	    -14.90045024	    -20.76293159	     61.00751569	     -2.33794884	      1.06478202	      4.20504877	     -9.58167055	     -9.37181262	     11.86605652	     -6.26459275	    -11.02574623	     12.09297312	      9.50479809	      0.21106220	      7.41124132	     37.87021361	     -9.37181262	    -17.79653531	     -5.08773634	     -3.96778192	     -6.13107858	    -21.95938189	    -19.72614657	     97.29622048	     90.00000001	      0.00000000	      0.00000000	      0.05969015	    -25.63393488	     13.37697970	     91.14746193	     90.00000001	      0.00000000	      0.00000000
      0.51000000	     -0.96194692	      2.55425253	     11.93769106	     -0.06189131	      0.88650503	      0.38312463	     24.67512728	    -15.11433444	    -20.86748990	     58.40970328	     -2.46624276	      1.01944164	      5.53849695	     -9.52802132	     -9.32701781	     11.93186330	     -6.21255445	    -11.02231532	     12.04628445	      9.58837879	      0.21024733	      7.55730557	     37.93850288	     -9.32701781	    -17.86933483	     -4.98278057	     -4.04922215	     -6.24414133	    -21.28004607	    -19.67627206	     95.45153503	     90.00000001	      0.00000000	      0.00000000	      0.85222980	    -26.25871476	     13.76684692	     90.73491561	     90.00000001	      0.00000000	      0.00000000
      0.52000000	     -1.22219865	      2.63370632	     11.98748444	     -0.05892422	      0.88622692	      0.38380325	     25.44416826	    -15.13558894	    -20.91460587	     55.30757413	     -2.55033486	      0.96529927	      6.65147546	     -9.07911028	     -9.28435115	     11.96376717	     -6.18540084	    -11.04441546	     12.00555778	      9.62466873	      0.20953651	      7.70821783	     37.96463065	     -9.28435115	    -17.91170213	     -4.88366587	     -4.01467221	     -6.29924715	    -20.64773034	    -19.55858764	     93.53264366	     90.00000001	      0.00000000	      0.00000000	      1.64838307	    -26.81690919	     14.20919057	     90.32526804	     90.00000001	      0.00000000	      0.00000000
      0.53000000	     -1.46645220	      2.74693176	     12.02150251	     -0.05575284	      0.88589722	      0.38465064	     25.95507200	    -15.08556144	    -20.90355280	     51.85500118	     -2.50854775	      0.90504050	      7.40223469	     -8.26634362	     -9.24690618	     11.95817855	     -6.15709011	    -11.05909245	     11.96356339	      9.68970039	      0.20880357	      7.88456451	     37.96550595	     -9.24690618	    -17.92478961	     -4.82762436	     -3.93752986	     -6.34633995	    -20.08220678	    -19.36145990	     91.64877135	     90.00000001	      0.00000000	      0.00000000	      2.40802594	    -27.35164433	     14.60429071	     89.97994603	     90.00000001	      0.00000000	      0.00000000
      0.54000000	     -1.07752343	      2.77416970	     12.09808497	     -0.05171345	      0.88646772	      0.38567030	     25.36035797	    -14.74161686	    -22.07021955	     47.87475671	     -3.06469017	      0.83557213	      8.49742404	     -5.11074195	     -9.12594172	     11.09986310	     -6.58017851	    -11.07703438	     11.74322853	     10.20572212	      0.20495800	      8.00951545	     38.09597304	     -9.12594172	    -18.52053532	     -4.54947366	     -3.77711831	     -6.39412484	    -19.61251960	    -19.12734944	     89.83313186	     90.00000001	      0.00000000	      0.00000000	      3.26340278	    -27.84199256	     15.06404635	     89.65225434	     90.00000001	      0.00000000	      0.00000000
      0.55000000	     -1.55325482	      3.08100238	     12.18760968	     -0.04843041	      0.88560948	      0.38661110	     25.77509795	    -14.80428143	    -21.62936230	     44.30991224	     -2.68218632	      0.77335386	      8.48200062	     -4.23939642	     -9.09420342	     11.35944053	     -6.17532777	    -10.97487329	     11.76311659	     10.02576353	      0.20530511	      8.24159002	     38.01767514	     -9.09420342	    -18.24163968	     -4.76919833	     -3.78329837	     -6.32783381	    -19.09375845	    -18.70595068	     87.93687792	     90.00000001	      0.00000000	      0.00000000	      3.89365560	    -28.32479094	     15.31338736	     89.49846708	     90.00000001	      0.00000000	      0.00000000
      0.56000000	     -1.35679997	      3.26086182	     12.32795700	     -0.04434814	      0.88574206	      0.38777894	     25.09803053	    -14.55233802	    -22.00999701	     40.53673857	     -2.60431178	      0.70749956	      8.58230247	     -2.05283824	     -9.02128198	     10.72082137	     -6.31318395	    -10.84540734	     11.57350028	     10.38031054	      0.20199569	      8.56924518	     38.08047834	     -9.02128198	    -18.57681658	     -4.71781661	     -3.76444836	     -6.16064107	    -18.74499716	    -18.09254111	     85.88922268	     90.00000001	      0.00000000	      0.00000000	      4.56735426	    -28.77578444	     15.56259633	     89.36153745	     90.00000001	      0.00000000	      0.00000000
